name C:\Users\u0101727\Documents\MyRepositories\upper-imu-dc\Results\main_tracking\Case_14\ABD01_linearAccelerations_bodyFrame.mot
datacolumns 4
datarows 129
range 2.81000000 4.09000000
endheader 
time	radius_imu_x	radius_imu_y	radius_imu_z	
          2.81000000	         -4.08012206	          9.56072269	          3.93879070	
          2.82000000	         -2.73379321	          9.43896492	          3.19313953	
          2.83000000	         -1.83075508	          9.43326060	          2.67003733	
          2.84000000	         -1.25698021	          9.45317620	          2.32462595	
          2.85000000	         -0.93603327	          9.48401325	          2.11526246	
          2.86000000	         -0.81199334	          9.51494996	          2.00313207	
          2.87000000	         -0.83896006	          9.53899876	          1.95412932	
          2.88000000	         -0.97748041	          9.55251055	          1.93994823	
          2.89000000	         -1.19015245	          9.55458739	          1.93874935	
          2.90000000	         -1.43835550	          9.54670747	          1.93547207	
          2.91000000	         -1.68176465	          9.53226282	          1.92159266	
          2.92000000	         -1.88289054	          9.51516239	          1.89425371	
          2.93000000	         -2.01694880	          9.49749882	          1.85468237	
          2.94000000	         -2.08135368	          9.47801059	          1.80637577	
          2.95000000	         -2.09473852	          9.45326456	          1.75419196	
          2.96000000	         -2.08341297	          9.42114757	          1.70484457	
          2.97000000	         -2.06716605	          9.38374901	          1.66756347	
          2.98000000	         -2.05736825	          9.34703722	          1.65303667	
          2.99000000	         -2.06383047	          9.31810415	          1.67074777	
          3.00000000	         -2.09751356	          9.30276756	          1.72663925	
          3.01000000	         -2.16653569	          9.30443477	          1.82223109	
          3.02000000	         -2.27238254	          9.32363459	          1.95483539	
          3.03000000	         -2.40992304	          9.35799473	          2.11831511	
          3.04000000	         -2.56978454	          9.40281347	          2.30402734	
          3.05000000	         -2.74079757	          9.45227146	          2.50174625	
          3.06000000	         -2.91112665	          9.50116436	          2.70077585	
          3.07000000	         -3.06843513	          9.54638974	          2.89129391	
          3.08000000	         -3.20076863	          9.58707987	          3.06532039	
          3.09000000	         -3.29939947	          9.62320468	          3.21679329	
          3.10000000	         -3.36259819	          9.65384236	          3.34111949	
          3.11000000	         -3.39715790	          9.67656706	          3.43497056	
          3.12000000	         -3.41604038	          9.68831622	          3.49645268	
          3.13000000	         -3.43339906	          9.68695625	          3.52523230	
          3.14000000	         -3.45966232	          9.67248215	          3.52241160	
          3.15000000	         -3.49835601	          9.64735368	          3.49036353	
          3.16000000	         -3.54517084	          9.61606613	          3.43260260	
          3.17000000	         -3.58906082	          9.58430367	          3.35348125	
          3.18000000	         -3.61501407	          9.55781723	          3.25770868	
          3.19000000	         -3.60794688	          9.54114578	          3.14998585	
          3.20000000	         -3.55664888	          9.53656385	          3.03485971	
          3.21000000	         -3.45640872	          9.54372796	          2.91666449	
          3.22000000	         -3.30976579	          9.56002699	          2.79959812	
          3.23000000	         -3.12590774	          9.58117915	          2.68823582	
          3.24000000	         -2.91910137	          9.60189969	          2.58851483	
          3.25000000	         -2.70580510	          9.61706812	          2.50864910	
          3.26000000	         -2.50055292	          9.62356957	          2.45926073	
          3.27000000	         -2.31236560	          9.62180901	          2.45241567	
          3.28000000	         -2.14392565	          9.61551102	          2.49977164	
          3.29000000	         -1.99361068	          9.60980520	          2.61036188	
          3.30000000	         -1.85803464	          9.60915336	          2.78874674	
          3.31000000	         -1.73298232	          9.61648845	          3.03417738	
          3.32000000	         -1.61291977	          9.63340011	          3.34081444	
          3.33000000	         -1.49056291	          9.66019797	          3.69854760	
          3.34000000	         -1.35732920	          9.69517189	          4.09407597	
          3.35000000	         -1.20430169	          9.73365153	          4.51219836	
          3.36000000	         -1.02286519	          9.76822684	          4.93735464	
          3.37000000	         -0.80474726	          9.79095517	          5.35536433	
          3.38000000	         -0.54227364	          9.79687479	          5.75487518	
          3.39000000	         -0.23002482	          9.78695627	          6.12740895	
          3.40000000	          0.13196925	          9.76863412	          6.46528443	
          3.41000000	          0.53471574	          9.75311332	          6.75865804	
          3.42000000	          0.95796100	          9.75041208	          6.99404203	
          3.43000000	          1.37017784	          9.76479331	          7.15521877	
          3.44000000	          1.73106890	          9.79319592	          7.22574706	
          3.45000000	          1.99584028	          9.82703314	          7.19183960	
          3.46000000	          2.12006107	          9.85543827	          7.04452024	
          3.47000000	          2.06412529	          9.86782124	          6.78046161	
          3.48000000	          1.79678372	          9.85486724	          6.40165381	
          3.49000000	          1.29773545	          9.80845323	          5.91454883	
          3.50000000	          0.55960004	          9.72165405	          5.32939639	
          3.51000000	         -0.41053233	          9.58987572	          4.66025900	
          3.52000000	         -1.58961630	          9.41294671	          3.92571333	
          3.53000000	         -2.93814750	          9.19799047	          3.14977915	
          3.54000000	         -4.39544290	          8.95873067	          2.36196565	
          3.55000000	         -5.88863467	          8.72002426	          1.59598707	
          3.56000000	         -7.30099068	          8.50734886	          0.88525772	
          3.57000000	         -8.52092546	          8.35118717	          0.26339732	
          3.58000000	         -9.16441894	          8.34857585	         -0.26652929	
          3.59000000	         -9.51300610	          8.09525329	         -0.49680023	
          3.60000000	        -11.43465863	          7.66802873	         -0.20447954	
          3.61000000	        -11.36498525	          7.55541412	          0.02067883	
          3.62000000	        -11.36795806	          7.70087995	          0.42212780	
          3.63000000	        -11.41959956	          7.76266170	          0.73756690	
          3.64000000	        -10.93630318	          8.01119970	          1.23787914	
          3.65000000	        -10.82533108	          8.01338929	          1.65721267	
          3.66000000	        -10.00591113	          8.25896485	          1.99237825	
          3.67000000	         -9.43207988	          8.33420824	          2.38504729	
          3.68000000	         -8.62228230	          8.43994311	          2.75767158	
          3.69000000	         -7.76918955	          8.53429022	          3.10277084	
          3.70000000	         -6.89056164	          8.60183351	          3.42751684	
          3.71000000	         -6.02204297	          8.65404748	          3.73816329	
          3.72000000	         -5.17514186	          8.69686664	          4.04523876	
          3.73000000	         -4.36879060	          8.71798749	          4.35147260	
          3.74000000	         -3.62201097	          8.72860328	          4.66217834	
          3.75000000	         -2.93384605	          8.72115324	          4.97889552	
          3.76000000	         -2.31057457	          8.69621139	          5.30068345	
          3.77000000	         -1.74736944	          8.65681102	          5.62262308	
          3.78000000	         -1.23745312	          8.61108675	          5.93564454	
          3.79000000	         -0.77468321	          8.56566080	          6.22887883	
          3.80000000	         -0.35992186	          8.52116342	          6.49218655	
          3.81000000	         -0.00133743	          8.47131380	          6.71814365	
          3.82000000	          0.28932784	          8.40645417	          6.90303927	
          3.83000000	          0.50222477	          8.31868498	          7.04687660	
          3.84000000	          0.63352336	          8.20558837	          7.15259928	
          3.85000000	          0.68662126	          8.07065002	          7.22517548	
          3.86000000	          0.67061018	          7.92095817	          7.27093757	
          3.87000000	          0.59775009	          7.76439358	          7.29694561	
          3.88000000	          0.48138872	          7.60764158	          7.31029269	
          3.89000000	          0.33476273	          7.45535188	          7.31743686	
          3.90000000	          0.17031778	          7.31013133	          7.32362824	
          3.91000000	         -0.00105298	          7.17282845	          7.33252558	
          3.92000000	         -0.17104212	          7.04259876	          7.34609177	
          3.93000000	         -0.33478071	          6.91678821	          7.36481198	
          3.94000000	         -0.49059806	          6.79145711	          7.38807440	
          3.95000000	         -0.63821616	          6.66321493	          7.41445037	
          3.96000000	         -0.77624515	          6.53153929	          7.44186535	
          3.97000000	         -0.90073942	          6.39968446	          7.46797419	
          3.98000000	         -1.00586916	          6.27321457	          7.49090729	
          3.99000000	         -1.08607821	          6.15715447	          7.51005690	
          4.00000000	         -1.13810562	          6.05368422	          7.52641766	
          4.01000000	         -1.16173657	          5.96154211	          7.54233101	
          4.02000000	         -1.15936281	          5.87685950	          7.56082973	
          4.03000000	         -1.13517540	          5.79439755	          7.58488385	
          4.04000000	         -1.09460492	          5.70851076	          7.61677478	
          4.05000000	         -1.04392337	          5.61391561	          7.65767679	
          4.06000000	         -0.98955254	          5.50661209	          7.70744620	
          4.07000000	         -0.93693042	          5.38496127	          7.76464656	
          4.08000000	         -0.88935286	          5.25045118	          7.82684302	
          4.09000000	         -0.84749863	          5.10762518	          7.89107369	
